<?xml version="1.0" encoding="utf-8"?>
<!-- Generator: Adobe Illustrator 19.0.0, SVG Export Plug-In . SVG Version: 6.00 Build 0)  -->
<svg version="1.1" id="Layer_1" xmlns="http://www.w3.org/2000/svg" xmlns:xlink="http://www.w3.org/1999/xlink" x="0px" y="0px"
	 viewBox="0 0 96 96" style="enable-background:new 0 0 96 96;" xml:space="preserve">
<style type="text/css">
	.st0{fill:#FABC3D;}
	.st1{fill:#F0F1F1;}
	.st2{fill:#FFFFFF;}
	.st3{fill:#3E3E3F;}
	.st4{fill:#17B198;}
	.st5{fill:#FA5655;}
</style>
<g id="XMLID_1_">
	<circle id="XMLID_3_" class="st0" cx="48" cy="48" r="32.5"/>
	<path id="XMLID_4_" class="st1" d="M66.9,62.2c0,2.6-2.1,4.7-4.7,4.7H33.8c-2.6,0-4.7-2.1-4.7-4.7V33.8c0-2.6,2.1-4.7,4.7-4.7h28.4
		c2.6,0,4.7,2.1,4.7,4.7V62.2z"/>
	<path id="XMLID_5_" class="st2" d="M62.2,29.1H33.8c-2.6,0-4.7,2.1-4.7,4.7v28.4c0,1.3,0.6,2.5,1.4,3.4l35-35
		C64.7,29.6,63.5,29.1,62.2,29.1z"/>
	<path id="XMLID_6_" class="st3" d="M39.7,58.3c0,1.3-1.1,2.4-2.4,2.4S35,59.6,35,58.3V37.1c0-1.3,1.1-2.4,2.4-2.4s2.4,1.1,2.4,2.4
		V58.3z"/>
	<path id="XMLID_7_" class="st3" d="M50.4,58.3c0,1.3-1.1,2.4-2.4,2.4c-1.3,0-2.4-1.1-2.4-2.4V37.1c0-1.3,1.1-2.4,2.4-2.4
		c1.3,0,2.4,1.1,2.4,2.4V58.3z"/>
	<path id="XMLID_8_" class="st3" d="M61,58.3c0,1.3-1.1,2.4-2.4,2.4s-2.4-1.1-2.4-2.4V37.1c0-1.3,1.1-2.4,2.4-2.4s2.4,1.1,2.4,2.4
		V58.3z"/>
	<path id="XMLID_9_" class="st4" d="M41.5,43.3c0-0.7-0.6-1.2-1.4-1.2h-5.5c-0.8,0-1.4,0.5-1.4,1.2v2.4c0,0.7,0.6,1.2,1.4,1.2h5.5
		c0.8,0,1.4-0.5,1.4-1.2V43.3z"/>
	<path id="XMLID_10_" class="st4" d="M62.8,43.3c0-0.7-0.6-1.2-1.4-1.2h-5.5c-0.8,0-1.4,0.5-1.4,1.2v2.4c0,0.7,0.6,1.2,1.4,1.2h5.5
		c0.8,0,1.4-0.5,1.4-1.2V43.3z"/>
	<path id="XMLID_11_" class="st5" d="M52.1,50.4c0-0.7-0.6-1.2-1.4-1.2h-5.5c-0.8,0-1.4,0.5-1.4,1.2v2.4c0,0.7,0.6,1.2,1.4,1.2h5.5
		c0.8,0,1.4-0.5,1.4-1.2V50.4z"/>
</g>
</svg>
